<svg xmlns="http://www.w3.org/2000/svg" xmlns:svg="http://www.w3.org/2000/svg" id="svg15" width="4096" height="4096" version="1.1" viewBox="0 0 4096 4096"><metadata id="metadata19"/><title id="title2">ic_cast_white_24dp</title><desc id="desc4">Created with Sketch.</desc><g id="Page-1" fill="none" fill-rule="evenodd" stroke="none" stroke-width="1" transform="scale(170.66667)"><g id="ic_cast_white_24dp"><g id="ic_remove_circle_white_24dp"><path id="cast" fill="#fff" d="m 1,18 v 3 H 4 C 4,19.34 2.66,18 1,18 Z m 0,-4 v 2 c 2.76,0 5,2.24 5,5 H 8 C 8,17.13 4.87,14 1,14 Z m 0,-4 v 2 c 4.97,0 9,4.03 9,9 h 2 C 12,14.92 7.07,10 1,10 Z M 21,3 H 3 C 1.9,3 1,3.9 1,5 V 8 H 3 V 5 h 18 v 14 h -7 v 2 h 7 c 1.1,0 2,-0.9 2,-2 V 5 C 23,3.9 22.1,3 21,3 Z" style="fill:#fff;fill-opacity:1"/><rect id="bounds" width="24" height="24" x="0" y="0"/></g></g></g></svg>